0
SECTION
2
HEADER
9
$INSUNITS
70
4
9
$ACADVER
1
AC1014
9
$HANDSEED
5
FFFF
0
ENDSEC
0
SECTION
2
TABLES
0
TABLE
2
VPORT
5
8
100
AcDbSymbolTable
0
ENDTAB
0
TABLE
2
LTYPE
5
5
100
AcDbSymbolTable
0
LTYPE
5
14
100
AcDbSymbolTableRecord
100
AcDbLinetypeTableRecord
2
BYBLOCK
70
0
0
LTYPE
5
15
100
AcDbSymbolTableRecord
100
AcDbLinetypeTableRecord
2
BYLAYER
70
0
0
ENDTAB
0
TABLE
2
LAYER
5
2
100
AcDbSymbolTable
70
2
0
LAYER
5
50
100
AcDbSymbolTableRecord
100
AcDbLayerTableRecord
2
0
70
0
6
CONTINUOUS
0
ENDTAB
0
TABLE
2
STYLE
5
3
100
AcDbSymbolTable
70
1
0
STYLE
5
11
100
AcDbSymbolTableRecord
100
AcDbTextStyleTableRecord
2
STANDARD
70
0
0
ENDTAB
0
TABLE
2
VIEW
5
6
100
AcDbSymbolTable
70
0
0
ENDTAB
0
TABLE
2
UCS
5
7
100
AcDbSymbolTable
70
0
0
ENDTAB
0
TABLE
2
APPID
5
9
100
AcDbSymbolTable
70
2
0
APPID
5
12
100
AcDbSymbolTableRecord
100
AcDbRegAppTableRecord
2
ACAD
70
0
0
ENDTAB
0
TABLE
2
DIMSTYLE
5
A
100
AcDbSymbolTable
70
1
0
ENDTAB
0
TABLE
2
BLOCK_RECORD
5
1
100
AcDbSymbolTable
70
1
0
BLOCK_RECORD
5
1F
100
AcDbSymbolTableRecord
100
AcDbBlockTableRecord
2
*MODEL_SPACE
0
BLOCK_RECORD
5
1B
100
AcDbSymbolTableRecord
100
AcDbBlockTableRecord
2
*PAPER_SPACE
0
ENDTAB
0
ENDSEC
0
SECTION
2
BLOCKS
0
BLOCK
5
20
100
AcDbEntity
100
AcDbBlockBegin
2
*MODEL_SPACE
0
ENDBLK
5
21
100
AcDbEntity
100
AcDbBlockEnd
0
BLOCK
5
1C
100
AcDbEntity
100
AcDbBlockBegin
2
*PAPER_SPACE
0
ENDBLK
5
1D
100
AcDbEntity
100
AcDbBlockEnd
0
ENDSEC
0
SECTION
2
ENTITIES
0
ARC
5
100
100
AcDbEntity
8
0
100
AcDbCircle
10
3.9968028886505635e-14
20
3.1086244689504383e-14
30
0
40
15.00000000000005
210
0
220
0
230
1
100
AcDbArc
50
200.00519008815951
51
232.330112556285
0
ARC
5
101
100
AcDbEntity
8
0
100
AcDbCircle
10
-11.00000011920929
20
-14.247806756739633
30
0
40
3.0000000000000004
210
0
220
-0
230
1
100
AcDbArc
50
0
51
52.330112556285144
0
LINE
5
102
100
AcDbEntity
8
0
100
AcDbLine
10
-8.0000001192092896
20
-14.247806756739633
30
0
11
-8.0000001192092896
21
-14.685644721091133
31
0
0
ARC
5
103
100
AcDbEntity
8
0
100
AcDbCircle
10
-11.000000119209288
20
-14.685644721091133
30
0
40
3.0000000000000004
210
-0
220
0
230
1
100
AcDbArc
50
-67.299086233817064
51
0
0
ELLIPSE
5
104
100
AcDbEntity
8
0
100
AcDbEllipse
10
0.002277229826937691
20
-23.652400485287821
30
0
11
15.582022065430301
21
0
31
0.0
40
0.51324841935784449
41
2.2546524402852932
42
4.1479861942234351
0
LINE
5
105
100
AcDbEntity
8
0
100
AcDbLine
10
-8.3327227701730813
20
-30.409510104880457
30
0
11
-8.3327227701730706
21
-26.419951485681239
31
0
0
LINE
5
106
100
AcDbEntity
8
0
100
AcDbLine
10
-8.3327227701730706
20
-26.419951485681239
30
0
11
-11.304242803804625
21
-23.681200521350853
31
0
0
LINE
5
107
100
AcDbEntity
8
0
100
AcDbLine
10
-11.304242803804625
20
-23.681200521350853
30
0
11
-8.0518654372332179
21
-20.152400485287835
31
0
0
LINE
5
108
100
AcDbEntity
8
0
100
AcDbLine
10
-8.0518654372332179
20
-20.152400485287835
30
0
11
8.0564198968870606
21
-20.152400485287846
31
0
0
LINE
5
109
100
AcDbEntity
8
0
100
AcDbLine
10
8.0564198968870606
20
-20.152400485287846
30
0
11
11.308797263458427
21
-23.68120052135086
31
0
0
LINE
5
110
100
AcDbEntity
8
0
100
AcDbLine
10
11.308797263458427
20
-23.68120052135086
30
0
11
8.3372772298269098
21
-26.419951485681231
31
0
0
LINE
5
111
100
AcDbEntity
8
0
100
AcDbLine
10
8.3372772298269098
20
-26.419951485681231
30
0
11
8.3372772298269133
21
-30.409510104880471
31
0
0
ELLIPSE
5
112
100
AcDbEntity
8
0
100
AcDbEllipse
10
0.002277229826937691
20
-23.652400485287821
30
0
11
15.582022065430301
21
0
31
0.0
40
0.51324841935784449
41
5.2767917665459407
42
7.1704487231698124
0
ARC
5
113
100
AcDbEntity
8
0
100
AcDbCircle
10
11.00000011920929
20
-14.683740092616368
30
0
40
3.0000000000000004
210
0
220
0
230
1
100
AcDbArc
50
180
51
247.31254649578077
0
LINE
5
114
100
AcDbEntity
8
0
100
AcDbLine
10
8.0000001192092896
20
-14.683740092616368
30
0
11
8.0000001192092896
21
-14.247806756739633
31
0
0
ARC
5
115
100
AcDbEntity
8
0
100
AcDbCircle
10
11.00000011920929
20
-14.247806756739633
30
0
40
3.0000000000000018
210
0
220
0
230
1
100
AcDbArc
50
127.66988744371488
51
180
0
ARC
5
116
100
AcDbEntity
8
0
100
AcDbCircle
10
3.9968028886505635e-14
20
3.1086244689504383e-14
30
0
40
14.999999999999998
210
0
220
0
230
1
100
AcDbArc
50
307.66988744371474
51
339.99480984010904
0
ARC
5
117
100
AcDbEntity
8
0
100
AcDbCircle
10
17.853571063219466
20
-6.5000000223517382
30
0
40
3.9999999999999991
210
0
220
0
230
1
100
AcDbArc
50
90.000000000000057
51
159.99480984010924
0
LINE
5
118
100
AcDbEntity
8
0
100
AcDbLine
10
17.853571063219462
20
-2.5000000223517391
30
0
11
37.388062671188642
21
-2.5000000223517373
31
0
0
LINE
5
119
100
AcDbEntity
8
0
100
AcDbLine
10
37.388062671188642
20
-2.5000000223517373
30
0
11
37.388062671188642
21
-1.5000000223517373
31
0
0
ARC
5
120
100
AcDbEntity
8
0
100
AcDbCircle
10
37.388062671188642
20
-1.1999999999999968
30
0
40
0.30000002235174061
210
0
220
0
230
1
100
AcDbArc
50
-90
51
48.096197052183108
0
LINE
5
121
100
AcDbEntity
8
0
100
AcDbLine
10
37.588427258260218
20
-0.9767198346300342
30
0
11
36.500000558793545
21
4.4408920985006262e-15
31
0
0
LINE
5
122
100
AcDbEntity
8
0
100
AcDbLine
10
36.500000558793545
20
4.4408920985006262e-15
30
0
11
37.588427272825172
21
0.97671983314591859
31
0
0
ARC
5
123
100
AcDbEntity
8
0
100
AcDbCircle
10
37.388062687407462
20
1.2000000000000046
30
0
40
0.29999999999999838
210
-0
220
0
230
1
100
AcDbArc
50
-48.096197476580173
51
90
0
LINE
5
124
100
AcDbEntity
8
0
100
AcDbLine
10
37.388062687407462
20
1.5000000000000022
30
0
11
37.388062687407462
21
2.5000000000000044
31
0
0
LINE
5
125
100
AcDbEntity
8
0
100
AcDbLine
10
37.388062687407462
20
2.5000000000000044
30
0
11
17.853571071357127
21
2.5000000000000022
31
0
0
ARC
5
126
100
AcDbEntity
8
0
100
AcDbCircle
10
17.853571071357123
20
6.5000000000000018
30
0
40
3.9999999999999996
210
0
220
0
230
1
100
AcDbArc
50
200.00519008815945
51
270.00000000000006
0
ARC
5
127
100
AcDbEntity
8
0
100
AcDbCircle
10
3.9968028886505635e-14
20
3.1086244689504383e-14
30
0
40
14.99999999999995
210
0
220
-0
230
1
100
AcDbArc
50
20.005190088159431
51
69.994809840109312
0
ARC
5
128
100
AcDbEntity
8
0
100
AcDbCircle
10
6.5000000223517382
20
17.853571063219466
30
0
40
4
210
0
220
0
230
1
100
AcDbArc
50
180
51
249.99480984010916
0
LINE
5
129
100
AcDbEntity
8
0
100
AcDbLine
10
2.5000000223517382
20
17.853571063219462
30
0
11
2.5000000223517391
21
37.388062671188642
31
0
0
LINE
5
130
100
AcDbEntity
8
0
100
AcDbLine
10
2.5000000223517391
20
37.388062671188642
30
0
11
1.5000000223517396
21
37.388062671188642
31
0
0
ARC
5
131
100
AcDbEntity
8
0
100
AcDbCircle
10
1.1999999999999991
20
37.388062671188642
30
0
40
0.30000002235174045
210
0
220
0
230
1
100
AcDbArc
50
0
51
138.09619705218313
0
LINE
5
132
100
AcDbEntity
8
0
100
AcDbLine
10
0.97671983463003653
20
37.588427258260218
30
0
11
-2.2204460492503131e-15
21
36.500000558793545
31
0
0
LINE
5
133
100
AcDbEntity
8
0
100
AcDbLine
10
-2.2204460492503131e-15
20
36.500000558793545
30
0
11
-0.97671983314591637
21
37.588427272825172
31
0
0
ARC
5
134
100
AcDbEntity
8
0
100
AcDbCircle
10
-1.2000000000000022
20
37.388062687407462
30
0
40
0.29999999999999827
210
0
220
-0
230
1
100
AcDbArc
50
41.903802523419863
51
180
0
LINE
5
135
100
AcDbEntity
8
0
100
AcDbLine
10
-1.5
20
37.388062687407462
30
0
11
-2.5000000000000022
21
37.388062687407462
31
0
0
LINE
5
136
100
AcDbEntity
8
0
100
AcDbLine
10
-2.5000000000000022
20
37.388062687407462
30
0
11
-2.5000000000000009
21
17.853571071357127
31
0
0
ARC
5
137
100
AcDbEntity
8
0
100
AcDbCircle
10
-6.5
20
17.853571071357123
30
0
40
4.0000000000000018
210
-0
220
0
230
1
100
AcDbArc
50
-69.994809911840534
51
0
0
ARC
5
138
100
AcDbEntity
8
0
100
AcDbCircle
10
3.9968028886505635e-14
20
3.1086244689504383e-14
30
0
40
14.999999999999982
210
0
220
0
230
1
100
AcDbArc
50
110.00519008815968
51
159.99480984010938
0
ARC
5
139
100
AcDbEntity
8
0
100
AcDbCircle
10
-17.853571063219462
20
6.50000002235174
30
0
40
4.0000000000000009
210
-0
220
0
230
1
100
AcDbArc
50
270
51
339.99480984010916
0
LINE
5
140
100
AcDbEntity
8
0
100
AcDbLine
10
-17.853571063219462
20
2.5000000223517387
30
0
11
-37.388062671188642
21
2.5000000223517418
31
0
0
LINE
5
141
100
AcDbEntity
8
0
100
AcDbLine
10
-37.388062671188642
20
2.5000000223517418
30
0
11
-37.388062671188642
21
1.5000000223517418
31
0
0
ARC
5
142
100
AcDbEntity
8
0
100
AcDbCircle
10
-37.388062671188642
20
1.2000000000000013
30
0
40
0.30000002235174045
210
0
220
-0
230
1
100
AcDbArc
50
90
51
228.09619705218307
0
LINE
5
143
100
AcDbEntity
8
0
100
AcDbLine
10
-37.588427258260218
20
0.97671983463003875
30
0
11
-36.500000558793545
21
0
31
0
0
LINE
5
144
100
AcDbEntity
8
0
100
AcDbLine
10
-36.500000558793545
20
0
30
0
11
-37.588427272825172
21
-0.97671983314591393
31
0
0
ARC
5
145
100
AcDbEntity
8
0
100
AcDbCircle
10
-37.388062687407462
20
-1.2
30
0
40
0.29999999999999838
210
0
220
0
230
1
100
AcDbArc
50
131.90380252341984
51
270
0
LINE
5
146
100
AcDbEntity
8
0
100
AcDbLine
10
-37.388062687407462
20
-1.4999999999999978
30
0
11
-37.388062687407462
21
-2.5
31
0
0
LINE
5
147
100
AcDbEntity
8
0
100
AcDbLine
10
-37.388062687407462
20
-2.5
30
0
11
-17.853571071357127
21
-2.5
31
0
0
ARC
5
148
100
AcDbEntity
8
0
100
AcDbCircle
10
-17.853571071357127
20
-6.5
30
0
40
4
210
0
220
-0
230
1
100
AcDbArc
50
20.005190088159488
51
90
0
CIRCLE
5
149
100
AcDbEntity
8
0
100
AcDbCircle
10
-33.562114257055114
20
-0.0012306180593505268
30
0
40
0.24999999999999911
210
0
220
-0
230
1
0
CIRCLE
5
150
100
AcDbEntity
8
0
100
AcDbCircle
10
-31.899999301880598
20
9.1848509936051509e-17
30
0
40
0.37500000000000089
210
0
220
-0
230
1
0
CIRCLE
5
151
100
AcDbEntity
8
0
100
AcDbCircle
10
-34.99834394136581
20
-0.0056352794090606126
30
0
40
0.15000000000000124
210
0
220
-0
230
1
0
LWPOLYLINE
5
152
100
AcDbEntity
8
0
100
AcDbPolyline
90
6
70
1
43
0.0
10
-0.500000000000001
20
15.479987080097967
10
-0.50000000000000178
20
29.000000447034836
42
-0.99999999999999989
10
0.49999999999999822
20
29.000000447034836
10
0.5
20
15.479987080097967
42
-0.4145920281378358
10
0.019379844961239831
20
14.999987480715085
42
0.00064599510150614204
10
-0.019379844961009786
20
14.999987480715085
42
-0.41459202813797708
0
CIRCLE
5
153
100
AcDbEntity
8
0
100
AcDbCircle
10
33.562114257055114
20
0.001230618059354637
30
0
40
0.24999999999999911
210
-0
220
0
230
1
0
CIRCLE
5
154
100
AcDbEntity
8
0
100
AcDbCircle
10
31.899999301880598
20
3.8147746938490364e-15
30
0
40
0.37500000000000089
210
-0
220
0
230
1
0
CIRCLE
5
155
100
AcDbEntity
8
0
100
AcDbCircle
10
34.99834394136581
20
0.0056352794090648983
30
0
40
0.15000000000000124
210
-0
220
0
230
1
0
CIRCLE
5
156
100
AcDbEntity
8
0
100
AcDbCircle
10
3.9968028886505635e-14
20
3.1086244689504383e-14
30
0
40
5.9749999999999979
210
-0
220
0
230
1
0
LWPOLYLINE
5
157
100
AcDbEntity
8
0
100
AcDbPolyline
90
6
70
1
43
0.0
10
15.479987080097967
20
0.50000000000000189
10
29.000000447034836
20
0.50000000000000355
42
-0.99999999999999989
10
29.000000447034836
20
-0.4999999999999965
10
15.479987080097967
20
-0.4999999999999985
42
-0.41459202813783569
10
14.999987480715085
20
-0.019379844961238343
42
0.00064599510150614204
10
14.999987480715085
20
0.019379844961010514
42
-0.41459202813797708
0
CIRCLE
5
158
100
AcDbEntity
8
0
100
AcDbCircle
10
-0.0056352794090627559
20
34.99834394136581
30
0
40
0.15000000000000124
210
0
220
-0
230
1
0
CIRCLE
5
159
100
AcDbEntity
8
0
100
AcDbCircle
10
-1.8614630919564925e-15
20
31.899999301880598
30
0
40
0.37500000000000089
210
0
220
-0
230
1
0
CIRCLE
5
160
100
AcDbEntity
8
0
100
AcDbCircle
10
-0.001230618059352582
20
33.562114257055114
30
0
40
0.24999999999999911
210
0
220
-0
230
1
0
LWPOLYLINE
5
161
100
AcDbEntity
8
0
100
AcDbPolyline
90
6
70
1
43
0.0
10
-15.479987080097967
20
-0.5
10
-29.000000447034836
20
-0.5
42
-0.99999999999999989
10
-29.000000447034836
20
0.5
10
-15.479987080097967
20
0.50000000000000089
42
-0.4145920281378358
10
-14.999987480715085
20
0.019379844961240782
42
0.00064599510150614204
10
-14.999987480715086
20
-0.019379844961005567
42
-0.4145920281379793
0
ENDSEC
0
SECTION
2
OBJECTS
0
DICTIONARY
5
C
100
AcDbDictionary
3
ACAD_GROUP
350
D
3
ACAD_MLINESTYLE
350
17
0
DICTIONARY
5
D
100
AcDbDictionary
0
DICTIONARY
5
1A
330
C
100
AcDbDictionary
0
DICTIONARY
5
17
100
AcDbDictionary
0
ENDSEC
0
EOF
